<svg id="visual" viewBox="0 0 900 600" width="900" height="600" xmlns="http://www.w3.org/2000/svg" xmlns:xlink="http://www.w3.org/1999/xlink" version="1.1"><rect x="0" y="0" width="900" height="600" fill="#000000"></rect><path d="M473 600L362 600L362 525L463 525L463 450L370 450L370 375L474 375L474 300L318 300L318 225L327 225L327 150L382 150L382 75L321 75L321 0L900 0L900 75L900 75L900 150L900 150L900 225L900 225L900 300L900 300L900 375L900 375L900 450L900 450L900 525L900 525L900 600L900 600Z" fill="#fccb06"></path><path d="M530 600L612 600L612 525L478 525L478 450L565 450L565 375L618 375L618 300L520 300L520 225L524 225L524 150L587 150L587 75L538 75L538 0L900 0L900 75L900 75L900 150L900 150L900 225L900 225L900 300L900 300L900 375L900 375L900 450L900 450L900 525L900 525L900 600L900 600Z" fill="#f4be05"></path><path d="M560 600L677 600L677 525L577 525L577 450L634 450L634 375L569 375L569 300L621 300L621 225L560 225L560 150L686 150L686 75L561 75L561 0L900 0L900 75L900 75L900 150L900 150L900 225L900 225L900 300L900 300L900 375L900 375L900 450L900 450L900 525L900 525L900 600L900 600Z" fill="#ecb205"></path><path d="M776 600L716 600L716 525L785 525L785 450L727 450L727 375L819 375L819 300L724 300L724 225L703 225L703 150L772 150L772 75L791 75L791 0L900 0L900 75L900 75L900 150L900 150L900 225L900 225L900 300L900 300L900 375L900 375L900 450L900 450L900 525L900 525L900 600L900 600Z" fill="#e4a606"></path></svg>