<svg id="visual" viewBox="0 0 900 600" width="900" height="600" xmlns="http://www.w3.org/2000/svg" xmlns:xlink="http://www.w3.org/1999/xlink" version="1.1"><path d="M0 91L16.7 89C33.3 87 66.7 83 100 76C133.3 69 166.7 59 200 54C233.3 49 266.7 49 300 57C333.3 65 366.7 81 400 83C433.3 85 466.7 73 500 70C533.3 67 566.7 73 600 81C633.3 89 666.7 99 700 98C733.3 97 766.7 85 800 85C833.3 85 866.7 97 883.3 103L900 109L900 0L883.3 0C866.7 0 833.3 0 800 0C766.7 0 733.3 0 700 0C666.7 0 633.3 0 600 0C566.7 0 533.3 0 500 0C466.7 0 433.3 0 400 0C366.7 0 333.3 0 300 0C266.7 0 233.3 0 200 0C166.7 0 133.3 0 100 0C66.7 0 33.3 0 16.7 0L0 0Z" fill="#fddc6b"></path><path d="M0 157L16.7 156C33.3 155 66.7 153 100 147C133.3 141 166.7 131 200 129C233.3 127 266.7 133 300 138C333.3 143 366.7 147 400 148C433.3 149 466.7 147 500 142C533.3 137 566.7 129 600 138C633.3 147 666.7 173 700 181C733.3 189 766.7 179 800 174C833.3 169 866.7 169 883.3 169L900 169L900 107L883.3 101C866.7 95 833.3 83 800 83C766.7 83 733.3 95 700 96C666.7 97 633.3 87 600 79C566.7 71 533.3 65 500 68C466.7 71 433.3 83 400 81C366.7 79 333.3 63 300 55C266.7 47 233.3 47 200 52C166.7 57 133.3 67 100 74C66.7 81 33.3 85 16.7 87L0 89Z" fill="#fdd446"></path><path d="M0 385L16.7 370C33.3 355 66.7 325 100 312C133.3 299 166.7 303 200 312C233.3 321 266.7 335 300 340C333.3 345 366.7 341 400 348C433.3 355 466.7 373 500 358C533.3 343 566.7 295 600 283C633.3 271 666.7 295 700 302C733.3 309 766.7 299 800 300C833.3 301 866.7 313 883.3 319L900 325L900 167L883.3 167C866.7 167 833.3 167 800 172C766.7 177 733.3 187 700 179C666.7 171 633.3 145 600 136C566.7 127 533.3 135 500 140C466.7 145 433.3 147 400 146C366.7 145 333.3 141 300 136C266.7 131 233.3 125 200 127C166.7 129 133.3 139 100 145C66.7 151 33.3 153 16.7 154L0 155Z" fill="#fccb06"></path><path d="M0 481L16.7 475C33.3 469 66.7 457 100 442C133.3 427 166.7 409 200 415C233.3 421 266.7 451 300 453C333.3 455 366.7 429 400 428C433.3 427 466.7 451 500 439C533.3 427 566.7 379 600 369C633.3 359 666.7 387 700 403C733.3 419 766.7 423 800 432C833.3 441 866.7 455 883.3 462L900 469L900 323L883.3 317C866.7 311 833.3 299 800 298C766.7 297 733.3 307 700 300C666.7 293 633.3 269 600 281C566.7 293 533.3 341 500 356C466.7 371 433.3 353 400 346C366.7 339 333.3 343 300 338C266.7 333 233.3 319 200 310C166.7 301 133.3 297 100 310C66.7 323 33.3 353 16.7 368L0 383Z" fill="#d9b007"></path><path d="M0 601L16.7 601C33.3 601 66.7 601 100 601C133.3 601 166.7 601 200 601C233.3 601 266.7 601 300 601C333.3 601 366.7 601 400 601C433.3 601 466.7 601 500 601C533.3 601 566.7 601 600 601C633.3 601 666.7 601 700 601C733.3 601 766.7 601 800 601C833.3 601 866.7 601 883.3 601L900 601L900 467L883.3 460C866.7 453 833.3 439 800 430C766.7 421 733.3 417 700 401C666.7 385 633.3 357 600 367C566.7 377 533.3 425 500 437C466.7 449 433.3 425 400 426C366.7 427 333.3 453 300 451C266.7 449 233.3 419 200 413C166.7 407 133.3 425 100 440C66.7 455 33.3 467 16.7 473L0 479Z" fill="#b89507"></path></svg>